<svg xmlns="http://www.w3.org/2000/svg" viewBox="0 0 32 32" width="32" height="32">
  <rect width="32" height="32" rx="6" fill="#0f0f0f"/>
  <svg x="5" y="5" width="22" height="22" viewBox="-29 -78 939 939">
    <path fill="#e8e8e8" fill-rule="evenodd" d="M346.8 12.6c-.4.3.3 3.6 1.3 7.2 2 6.5 5.5 19.4 15.8 57.2l23.6 86.6c3 11 5.9 21.3 6.4 22.7l1 2.7h92.8l5.7-21.2c4.7-17.5 23-84.5 39-142.3a75 75 0 0 0 3-12.7c-.6-1-187.8-1-188.6-.2m-38.5 51.6c-1 1.2-13.4 30.6-21.4 50.8-2 5.2-6.2 15.3-9.2 22.5l-29.7 71a5874.6 5874.6 0 0 1-39.2 94L194 338l-22.5 54a8598 8598 0 0 0-44 106 168482.1 168482.1 0 0 0-39.2 94A33495 33495 0 0 0 14 771.4c0 .4 52.4.6 116.5.6h116.6l1-2.7a1696 1696 0 0 1 15.6-38.3l11-26.5 12.8-31c12.3-29 30.5-73.6 30.5-75 0-1.2-15.7-14.3-37.9-31.4l-15-11.7c-6.4-5-7-4.8-10.1 3.4l-8.5 20.2a5787 5787 0 0 0-44 105.3l-4.7 11.7h-71.6l7.3-17.7 26-62.8 10.5-25L220.7 469c3.7-8.8 7.7-18.5 20.5-50l11.3-27 13.7-33a4262 4262 0 0 1 30.1-72.5l11.3-27 24.2-58.7L346 167c3.3-7.7 6-15.3 6-16.8 0-2.8-3.6-16.8-8.8-35.2A1538 1538 0 0 1 331 70l-1.7-6.5-10-.3c-7.3-.2-10.3 0-11 1m241.4 10.5-11.2 42c-4.7 17-8.5 32-8.5 33 0 2.7 27.8 70.7 63.5 155.3l14.8 35.3c.6 1.5 1.5 2.6 1.8 2.5a1136 1136 0 0 0 56.5-56.2L662 276a4392.7 4392.7 0 0 1-30.7-73.5l-21.4-52c-1.7-4.4-6.8-16.6-11.2-27-14.8-35-23.5-56-24.1-57.7-.6-1.6-2-1.8-11.5-1.8h-10.8zM440 220l-44.4.5-11.4 28A6064 6064 0 0 1 354 322c-41.4 99.7-43.5 105-41.9 106.6l29.9 23.8c21.6 17 28.8 22.1 29.7 21.3 1-1 13.6-31 27.8-66.2 2.9-7.1 7-17.3 9.3-22.5a10859.7 10859.7 0 0 1 31.6-77.5c.7-2 2.6 2.2 18 40.5a9006 9006 0 0 0 37.8 91.8 36 36 0 0 0 4.8 10c2-.7 56-54.1 56-55.4 0-1.5-10-26.4-26.7-66.4-6.3-15.1-14.4-34.5-17.8-43a1438 1438 0 0 0-27.2-65c-.5-.2-20.8-.3-45.2 0M695 436.4l-28.2 28-4.7 4.8 1.4 3.6c2.7 7.3 9.5 24 17.5 43.2a20049 20049 0 0 1 69.5 166.6l4.4 10.7 1 2.7h-71.5l-3.6-8.7-37.3-90.3a2642 2642 0 0 0-31.3-74.5 7 7 0 0 0-.8-2.4c-.2-.3-13.2 12.4-28.8 28L554 576.6l8.5 20.5 38.4 92.4 27.2 65.4c3.2 8 6.4 15 7 15.8.8 1 22.6 1.3 117 1.3 63.7 0 115.8-.4 115.8-.8s-3.4-8.9-7.6-18.7l-18-43.5-80.6-194c-6.4-15-38.6-92.7-41.2-99.2q-1-2.6-1.6-2.8c-.3 0-11 10.6-24 23.4"/>
    <path fill="#00c8d7" fill-rule="evenodd" d="M645.2 347.3c-31.7 31.5-66.2 65.6-76.7 75.7a992 992 0 0 0-23.5 23.5c-2.5 2.8-9.3 9.5-15 15-5.8 5.4-25.8 25-44.5 43.5-38.7 38.4-53 52-54.6 52-2.5 0-7.6-3.6-22.4-16-5-4.2-11.2-9.1-14-11a113 113 0 0 1-10-8c-2.8-2.6-9.7-8.1-15.3-12.3a337 337 0 0 1-16.9-13.8c-3.7-3.3-9.7-8-13.3-10.4s-11-8-16.3-12.7c-18.9-15.9-24.1-18.6-26.8-13.6a647 647 0 0 0-13.6 32.3l-7.6 19.3c-5.1 13-5.2 12.7 10 23.7 6 4.4 13.3 10 16 12.5s8 6.8 11.7 9.5a218 218 0 0 1 14 11.3c4 3.4 11.4 9.4 16.6 13.4a486 486 0 0 1 18.5 14.8c5 4.2 12.4 10.1 16.5 13.2s10.4 8.2 14 11.3 9.9 8.2 14 11.3c4.1 3 10.4 8.2 13.9 11.4 7.4 7 11.8 9.3 15.4 8.4 2.5-.6 30-27.2 84.8-81.6 35.5-35.3 177.5-176 207.2-205.2 14.7-14.5 26.7-27 26.7-27.6 0-2-17.2-20.3-32.2-34.2-10-9.4-14.6-13-16.4-13-2 0-15 12.5-60.2 57.3"/>
  </svg>
</svg>
